G04 EAGLE Gerber RS-274X export*
G75*
%MOMM*%
%FSLAX34Y34*%
%LPD*%
%INSolderpaste Top*%
%IPPOS*%
%AMOC8*
5,1,8,0,0,1.08239X$1,22.5*%
G01*
%ADD10R,1.500000X1.300000*%
%ADD11R,1.600000X1.800000*%
%ADD12R,1.800000X1.600000*%
%ADD13R,1.300000X1.500000*%
%ADD14R,0.800000X0.300000*%
%ADD15R,0.300000X0.800000*%
%ADD16R,1.800000X1.800000*%
%ADD17R,0.300000X1.600000*%
%ADD18R,1.600000X0.300000*%
%ADD19R,1.200000X1.200000*%
%ADD20R,1.600000X1.803000*%
%ADD21C,0.139500*%
%ADD22C,0.196500*%
%ADD23R,2.500000X3.500000*%
%ADD24R,3.050000X2.030000*%
%ADD25R,8.380000X10.660000*%


D10*
X194310Y231800D03*
X194310Y250800D03*
D11*
X255300Y1790700D03*
X227300Y1790700D03*
D12*
X266700Y1738600D03*
X266700Y1766600D03*
D10*
X194310Y301600D03*
X194310Y282600D03*
D11*
X190470Y1710690D03*
X218470Y1710690D03*
D12*
X165100Y1779300D03*
X165100Y1751300D03*
D13*
X295300Y1104900D03*
X314300Y1104900D03*
X377800Y1104900D03*
X358800Y1104900D03*
D14*
X61200Y1074300D03*
X61200Y1069300D03*
X61200Y1064300D03*
X61200Y1059300D03*
D15*
X68700Y1051800D03*
X73700Y1051800D03*
X78700Y1051800D03*
X83700Y1051800D03*
D14*
X91200Y1059300D03*
X91200Y1064300D03*
X91200Y1069300D03*
X91200Y1074300D03*
D15*
X83700Y1081800D03*
X78700Y1081800D03*
X73700Y1081800D03*
X68700Y1081800D03*
D16*
X76200Y1066800D03*
D14*
X200900Y1760100D03*
X200900Y1755100D03*
X200900Y1750100D03*
X200900Y1745100D03*
D15*
X208400Y1737600D03*
X213400Y1737600D03*
X218400Y1737600D03*
X223400Y1737600D03*
D14*
X230900Y1745100D03*
X230900Y1750100D03*
X230900Y1755100D03*
X230900Y1760100D03*
D15*
X223400Y1767600D03*
X218400Y1767600D03*
X213400Y1767600D03*
X208400Y1767600D03*
D16*
X215900Y1752600D03*
D17*
X402900Y990400D03*
X397900Y990400D03*
X392900Y990400D03*
X387900Y990400D03*
X382900Y990400D03*
X377900Y990400D03*
X372900Y990400D03*
X367900Y990400D03*
X362900Y990400D03*
X357900Y990400D03*
X352900Y990400D03*
X347900Y990400D03*
X342900Y990400D03*
X337900Y990400D03*
X332900Y990400D03*
X327900Y990400D03*
X322900Y990400D03*
X317900Y990400D03*
X312900Y990400D03*
X307900Y990400D03*
X302900Y990400D03*
X297900Y990400D03*
X292900Y990400D03*
X287900Y990400D03*
X282900Y990400D03*
D18*
X266900Y974400D03*
X266900Y969400D03*
X266900Y964400D03*
X266900Y959400D03*
X266900Y954400D03*
X266900Y949400D03*
X266900Y944400D03*
X266900Y939400D03*
X266900Y934400D03*
X266900Y929400D03*
X266900Y924400D03*
X266900Y919400D03*
X266900Y914400D03*
X266900Y909400D03*
X266900Y904400D03*
X266900Y899400D03*
X266900Y894400D03*
X266900Y889400D03*
X266900Y884400D03*
X266900Y879400D03*
X266900Y874400D03*
X266900Y869400D03*
X266900Y864400D03*
X266900Y859400D03*
X266900Y854400D03*
D17*
X282900Y838400D03*
X287900Y838400D03*
X292900Y838400D03*
X297900Y838400D03*
X302900Y838400D03*
X307900Y838400D03*
X312900Y838400D03*
X317900Y838400D03*
X322900Y838400D03*
X327900Y838400D03*
X332900Y838400D03*
X337900Y838400D03*
X342900Y838400D03*
X347900Y838400D03*
X352900Y838400D03*
X357900Y838400D03*
X362900Y838400D03*
X367900Y838400D03*
X372900Y838400D03*
X377900Y838400D03*
X382900Y838400D03*
X387900Y838400D03*
X392900Y838400D03*
X397900Y838400D03*
X402900Y838400D03*
D18*
X418900Y854400D03*
X418900Y859400D03*
X418900Y864400D03*
X418900Y869400D03*
X418900Y874400D03*
X418900Y879400D03*
X418900Y884400D03*
X418900Y889400D03*
X418900Y894400D03*
X418900Y899400D03*
X418900Y904400D03*
X418900Y909400D03*
X418900Y914400D03*
X418900Y919400D03*
X418900Y924400D03*
X418900Y929400D03*
X418900Y934400D03*
X418900Y939400D03*
X418900Y944400D03*
X418900Y949400D03*
X418900Y954400D03*
X418900Y959400D03*
X418900Y964400D03*
X418900Y969400D03*
X418900Y974400D03*
D19*
X227330Y1213780D03*
X227330Y1234780D03*
X139700Y230800D03*
X139700Y251800D03*
D13*
X264770Y1036320D03*
X245770Y1036320D03*
X267360Y1154430D03*
X286360Y1154430D03*
D10*
X414020Y748640D03*
X414020Y729640D03*
X364490Y728370D03*
X364490Y747370D03*
D13*
X342240Y1035050D03*
X323240Y1035050D03*
D10*
X292100Y136500D03*
X292100Y117500D03*
X292100Y85700D03*
X292100Y66700D03*
X139700Y66700D03*
X139700Y85700D03*
X139700Y117500D03*
X139700Y136500D03*
D20*
X241050Y1710690D03*
X269490Y1710690D03*
D21*
X227397Y293553D02*
X227397Y285647D01*
X227397Y293553D02*
X239103Y293553D01*
X239103Y285647D01*
X227397Y285647D01*
X227397Y286972D02*
X239103Y286972D01*
X239103Y288297D02*
X227397Y288297D01*
X227397Y289622D02*
X239103Y289622D01*
X239103Y290947D02*
X227397Y290947D01*
X227397Y292272D02*
X239103Y292272D01*
X227397Y270653D02*
X227397Y262747D01*
X227397Y270653D02*
X239103Y270653D01*
X239103Y262747D01*
X227397Y262747D01*
X227397Y264072D02*
X239103Y264072D01*
X239103Y265397D02*
X227397Y265397D01*
X227397Y266722D02*
X239103Y266722D01*
X239103Y268047D02*
X227397Y268047D01*
X227397Y269372D02*
X239103Y269372D01*
X227397Y247753D02*
X227397Y239847D01*
X227397Y247753D02*
X239103Y247753D01*
X239103Y239847D01*
X227397Y239847D01*
X227397Y241172D02*
X239103Y241172D01*
X239103Y242497D02*
X227397Y242497D01*
X227397Y243822D02*
X239103Y243822D01*
X239103Y245147D02*
X227397Y245147D01*
X227397Y246472D02*
X239103Y246472D01*
D22*
X294582Y251482D02*
X294582Y281918D01*
X305718Y281918D01*
X305718Y251482D01*
X294582Y251482D01*
X294582Y253349D02*
X305718Y253349D01*
X305718Y255216D02*
X294582Y255216D01*
X294582Y257083D02*
X305718Y257083D01*
X305718Y258950D02*
X294582Y258950D01*
X294582Y260817D02*
X305718Y260817D01*
X305718Y262684D02*
X294582Y262684D01*
X294582Y264551D02*
X305718Y264551D01*
X305718Y266418D02*
X294582Y266418D01*
X294582Y268285D02*
X305718Y268285D01*
X305718Y270152D02*
X294582Y270152D01*
X294582Y272019D02*
X305718Y272019D01*
X305718Y273886D02*
X294582Y273886D01*
X294582Y275753D02*
X305718Y275753D01*
X305718Y277620D02*
X294582Y277620D01*
X294582Y279487D02*
X305718Y279487D01*
X305718Y281354D02*
X294582Y281354D01*
D10*
X162560Y1002640D03*
X162560Y983640D03*
D23*
X215900Y134100D03*
X215900Y69100D03*
D10*
X508000Y622960D03*
X508000Y641960D03*
X546100Y622960D03*
X546100Y641960D03*
X584200Y622960D03*
X584200Y641960D03*
X355600Y625500D03*
X355600Y644500D03*
X393700Y625500D03*
X393700Y644500D03*
X431800Y625500D03*
X431800Y644500D03*
X508000Y682600D03*
X508000Y663600D03*
X546100Y682600D03*
X546100Y663600D03*
X584200Y682600D03*
X584200Y663600D03*
D24*
X150460Y1524000D03*
X150460Y1473200D03*
D25*
X236610Y1498600D03*
D24*
X586140Y1473200D03*
X586140Y1524000D03*
D25*
X499990Y1498600D03*
D10*
X139700Y301600D03*
X139700Y282600D03*
D13*
X542900Y88900D03*
X523900Y88900D03*
D10*
X494030Y183490D03*
X494030Y164490D03*
D13*
X291440Y711200D03*
X272440Y711200D03*
X267360Y558800D03*
X286360Y558800D03*
D10*
X226060Y1155090D03*
X226060Y1174090D03*
X464820Y762610D03*
X464820Y743610D03*
D19*
X464820Y677840D03*
X464820Y698840D03*
D20*
X700020Y762000D03*
X671580Y762000D03*
X700020Y1193800D03*
X671580Y1193800D03*
D13*
X287630Y1210310D03*
X268630Y1210310D03*
X268630Y1258570D03*
X287630Y1258570D03*
M02*
