G04 EAGLE Gerber RS-274X export*
G75*
%MOMM*%
%FSLAX34Y34*%
%LPD*%
%INSolderpaste Bottom*%
%IPPOS*%
%AMOC8*
5,1,8,0,0,1.08239X$1,22.5*%
G01*
%ADD10R,1.600000X1.800000*%
%ADD11R,1.500000X1.300000*%
%ADD12R,1.300000X1.500000*%
%ADD13R,1.300000X1.600000*%
%ADD14R,1.803000X1.600000*%
%ADD15R,2.500000X3.500000*%
%ADD16R,1.600000X1.803000*%


D10*
X60930Y1107440D03*
X88930Y1107440D03*
X90200Y1028700D03*
X62200Y1028700D03*
D11*
X353060Y956920D03*
X353060Y937920D03*
D12*
X352400Y914400D03*
X333400Y914400D03*
X300330Y955040D03*
X281330Y955040D03*
X268580Y989330D03*
X249580Y989330D03*
X353720Y858520D03*
X372720Y858520D03*
X314300Y859790D03*
X295300Y859790D03*
X268580Y1010920D03*
X249580Y1010920D03*
X300330Y934720D03*
X281330Y934720D03*
D11*
X378460Y937920D03*
X378460Y956920D03*
D13*
X275590Y1064260D03*
X245110Y1064260D03*
D11*
X139700Y66700D03*
X139700Y85700D03*
D14*
X165100Y1751080D03*
X165100Y1779520D03*
D12*
X488290Y85090D03*
X469290Y85090D03*
D11*
X519430Y183490D03*
X519430Y164490D03*
X139700Y117500D03*
X139700Y136500D03*
X292100Y136500D03*
X292100Y117500D03*
X292100Y85700D03*
X292100Y66700D03*
X162560Y848766D03*
X162560Y867766D03*
X326390Y956920D03*
X326390Y937920D03*
X247650Y959460D03*
X247650Y940460D03*
D12*
X272440Y831850D03*
X291440Y831850D03*
D11*
X401320Y855370D03*
X401320Y874370D03*
X439420Y982320D03*
X439420Y963320D03*
D15*
X215900Y69100D03*
X215900Y134100D03*
X266700Y234200D03*
X266700Y299200D03*
D11*
X508000Y523900D03*
X508000Y542900D03*
X546100Y523900D03*
X546100Y542900D03*
X584200Y523900D03*
X584200Y542900D03*
X355600Y523900D03*
X355600Y542900D03*
X393700Y523900D03*
X393700Y542900D03*
X433070Y523900D03*
X433070Y542900D03*
X508000Y676300D03*
X508000Y695300D03*
X546100Y676300D03*
X546100Y695300D03*
X584200Y676300D03*
X584200Y695300D03*
D16*
X611120Y1066800D03*
X582680Y1066800D03*
X611120Y1016000D03*
X582680Y1016000D03*
X611120Y965200D03*
X582680Y965200D03*
X611120Y914400D03*
X582680Y914400D03*
X611120Y863600D03*
X582680Y863600D03*
D12*
X428600Y1028700D03*
X409600Y1028700D03*
X428600Y1079500D03*
X409600Y1079500D03*
D14*
X495300Y1144520D03*
X495300Y1116080D03*
X495300Y1271520D03*
X495300Y1243080D03*
D15*
X165100Y299200D03*
X165100Y234200D03*
D11*
X508000Y574700D03*
X508000Y593700D03*
X546100Y574700D03*
X546100Y593700D03*
X584200Y574700D03*
X584200Y593700D03*
X355600Y574700D03*
X355600Y593700D03*
X393700Y574700D03*
X393700Y593700D03*
X433070Y574700D03*
X433070Y593700D03*
X508000Y727100D03*
X508000Y746100D03*
X546100Y727100D03*
X546100Y746100D03*
X584200Y727100D03*
X584200Y746100D03*
M02*
