G04 EAGLE Gerber RS-274X export*
G75*
%MOMM*%
%FSLAX34Y34*%
%LPD*%
%INTop Solder Mask*%
%IPPOS*%
%AMOC8*
5,1,8,0,0,1.08239X$1,22.5*%
G01*
%ADD10C,0.000000*%
%ADD11R,1.652400X1.452400*%
%ADD12R,1.752400X1.952400*%
%ADD13R,1.952400X1.752400*%
%ADD14R,1.452400X1.652400*%
%ADD15C,2.032000*%
%ADD16R,5.252400X5.252400*%
%ADD17C,5.252400*%
%ADD18P,1.814519X8X202.500000*%
%ADD19R,0.952400X0.452400*%
%ADD20R,0.452400X0.952400*%
%ADD21R,1.952400X1.952400*%
%ADD22R,0.452400X1.752400*%
%ADD23R,1.752400X0.452400*%
%ADD24C,1.524000*%
%ADD25C,1.676400*%
%ADD26R,1.352400X1.352400*%
%ADD27P,1.869504X8X112.500000*%
%ADD28R,1.727200X1.727200*%
%ADD29C,1.117600*%
%ADD30R,1.752400X1.955400*%
%ADD31C,1.612391*%
%ADD32C,0.292247*%
%ADD33C,0.350975*%
%ADD34C,1.552400*%
%ADD35C,4.502400*%
%ADD36R,2.652400X3.652400*%
%ADD37C,1.352400*%
%ADD38R,3.202400X2.182400*%
%ADD39R,8.532400X10.812400*%
%ADD40C,2.692400*%
%ADD41C,0.858000*%

G36*
X279498Y1446543D02*
X279498Y1446543D01*
X279597Y1446546D01*
X279655Y1446563D01*
X279716Y1446571D01*
X279808Y1446607D01*
X279903Y1446635D01*
X279955Y1446665D01*
X280011Y1446688D01*
X280091Y1446746D01*
X280177Y1446796D01*
X280252Y1446862D01*
X280269Y1446874D01*
X280276Y1446884D01*
X280298Y1446903D01*
X330726Y1497331D01*
X405874Y1497331D01*
X456303Y1446903D01*
X456381Y1446842D01*
X456453Y1446774D01*
X456506Y1446745D01*
X456554Y1446708D01*
X456645Y1446668D01*
X456731Y1446620D01*
X456790Y1446605D01*
X456846Y1446581D01*
X456944Y1446566D01*
X457039Y1446541D01*
X457139Y1446535D01*
X457160Y1446531D01*
X457172Y1446533D01*
X457200Y1446531D01*
X546100Y1446531D01*
X546218Y1446546D01*
X546337Y1446553D01*
X546375Y1446566D01*
X546416Y1446571D01*
X546526Y1446614D01*
X546639Y1446651D01*
X546674Y1446673D01*
X546711Y1446688D01*
X546807Y1446758D01*
X546908Y1446821D01*
X546936Y1446851D01*
X546969Y1446874D01*
X547045Y1446966D01*
X547126Y1447053D01*
X547146Y1447088D01*
X547171Y1447119D01*
X547222Y1447227D01*
X547280Y1447331D01*
X547290Y1447371D01*
X547307Y1447407D01*
X547329Y1447524D01*
X547359Y1447639D01*
X547363Y1447700D01*
X547367Y1447720D01*
X547365Y1447740D01*
X547369Y1447800D01*
X547369Y1549400D01*
X547354Y1549518D01*
X547347Y1549637D01*
X547334Y1549675D01*
X547329Y1549716D01*
X547286Y1549826D01*
X547249Y1549939D01*
X547227Y1549974D01*
X547212Y1550011D01*
X547143Y1550107D01*
X547079Y1550208D01*
X547049Y1550236D01*
X547026Y1550269D01*
X546934Y1550345D01*
X546847Y1550426D01*
X546812Y1550446D01*
X546781Y1550471D01*
X546673Y1550522D01*
X546569Y1550580D01*
X546529Y1550590D01*
X546493Y1550607D01*
X546376Y1550629D01*
X546261Y1550659D01*
X546201Y1550663D01*
X546181Y1550667D01*
X546160Y1550665D01*
X546100Y1550669D01*
X190500Y1550669D01*
X190382Y1550654D01*
X190263Y1550647D01*
X190225Y1550634D01*
X190184Y1550629D01*
X190074Y1550586D01*
X189961Y1550549D01*
X189926Y1550527D01*
X189889Y1550512D01*
X189793Y1550443D01*
X189692Y1550379D01*
X189664Y1550349D01*
X189631Y1550326D01*
X189556Y1550234D01*
X189474Y1550147D01*
X189454Y1550112D01*
X189429Y1550081D01*
X189378Y1549973D01*
X189320Y1549869D01*
X189310Y1549829D01*
X189293Y1549793D01*
X189271Y1549676D01*
X189241Y1549561D01*
X189237Y1549501D01*
X189233Y1549481D01*
X189235Y1549460D01*
X189231Y1549400D01*
X189231Y1447800D01*
X189246Y1447682D01*
X189253Y1447563D01*
X189266Y1447525D01*
X189271Y1447484D01*
X189314Y1447374D01*
X189351Y1447261D01*
X189373Y1447226D01*
X189388Y1447189D01*
X189458Y1447093D01*
X189521Y1446992D01*
X189551Y1446964D01*
X189574Y1446931D01*
X189666Y1446856D01*
X189753Y1446774D01*
X189788Y1446754D01*
X189819Y1446729D01*
X189927Y1446678D01*
X190031Y1446620D01*
X190071Y1446610D01*
X190107Y1446593D01*
X190224Y1446571D01*
X190339Y1446541D01*
X190400Y1446537D01*
X190420Y1446533D01*
X190440Y1446535D01*
X190500Y1446531D01*
X279400Y1446531D01*
X279498Y1446543D01*
G37*
G36*
X635098Y1459243D02*
X635098Y1459243D01*
X635197Y1459246D01*
X635255Y1459263D01*
X635316Y1459271D01*
X635408Y1459307D01*
X635503Y1459335D01*
X635555Y1459365D01*
X635611Y1459388D01*
X635691Y1459446D01*
X635777Y1459496D01*
X635852Y1459562D01*
X635869Y1459574D01*
X635876Y1459584D01*
X635898Y1459603D01*
X673626Y1497331D01*
X736600Y1497331D01*
X736718Y1497346D01*
X736837Y1497353D01*
X736875Y1497366D01*
X736916Y1497371D01*
X737026Y1497414D01*
X737139Y1497451D01*
X737174Y1497473D01*
X737211Y1497488D01*
X737307Y1497558D01*
X737408Y1497621D01*
X737436Y1497651D01*
X737469Y1497674D01*
X737545Y1497766D01*
X737626Y1497853D01*
X737646Y1497888D01*
X737671Y1497919D01*
X737722Y1498027D01*
X737780Y1498131D01*
X737790Y1498171D01*
X737807Y1498207D01*
X737829Y1498324D01*
X737859Y1498439D01*
X737863Y1498500D01*
X737867Y1498520D01*
X737865Y1498540D01*
X737869Y1498600D01*
X737869Y1549400D01*
X737854Y1549518D01*
X737847Y1549637D01*
X737834Y1549675D01*
X737829Y1549716D01*
X737786Y1549826D01*
X737749Y1549939D01*
X737727Y1549974D01*
X737712Y1550011D01*
X737643Y1550107D01*
X737579Y1550208D01*
X737549Y1550236D01*
X737526Y1550269D01*
X737434Y1550345D01*
X737347Y1550426D01*
X737312Y1550446D01*
X737281Y1550471D01*
X737173Y1550522D01*
X737069Y1550580D01*
X737029Y1550590D01*
X736993Y1550607D01*
X736876Y1550629D01*
X736761Y1550659D01*
X736701Y1550663D01*
X736681Y1550667D01*
X736660Y1550665D01*
X736600Y1550669D01*
X571500Y1550669D01*
X571382Y1550654D01*
X571263Y1550647D01*
X571225Y1550634D01*
X571184Y1550629D01*
X571074Y1550586D01*
X570961Y1550549D01*
X570926Y1550527D01*
X570889Y1550512D01*
X570793Y1550443D01*
X570692Y1550379D01*
X570664Y1550349D01*
X570631Y1550326D01*
X570556Y1550234D01*
X570474Y1550147D01*
X570454Y1550112D01*
X570429Y1550081D01*
X570378Y1549973D01*
X570320Y1549869D01*
X570310Y1549829D01*
X570293Y1549793D01*
X570271Y1549676D01*
X570241Y1549561D01*
X570237Y1549501D01*
X570233Y1549481D01*
X570235Y1549460D01*
X570231Y1549400D01*
X570231Y1460500D01*
X570246Y1460382D01*
X570253Y1460263D01*
X570266Y1460225D01*
X570271Y1460184D01*
X570314Y1460074D01*
X570351Y1459961D01*
X570373Y1459926D01*
X570388Y1459889D01*
X570458Y1459793D01*
X570521Y1459692D01*
X570551Y1459664D01*
X570574Y1459631D01*
X570666Y1459556D01*
X570753Y1459474D01*
X570788Y1459454D01*
X570819Y1459429D01*
X570927Y1459378D01*
X571031Y1459320D01*
X571071Y1459310D01*
X571107Y1459293D01*
X571224Y1459271D01*
X571339Y1459241D01*
X571400Y1459237D01*
X571420Y1459233D01*
X571440Y1459235D01*
X571500Y1459231D01*
X635000Y1459231D01*
X635098Y1459243D01*
G37*
G36*
X165218Y1459246D02*
X165218Y1459246D01*
X165337Y1459253D01*
X165375Y1459266D01*
X165416Y1459271D01*
X165526Y1459314D01*
X165639Y1459351D01*
X165674Y1459373D01*
X165711Y1459388D01*
X165807Y1459458D01*
X165908Y1459521D01*
X165936Y1459551D01*
X165969Y1459574D01*
X166045Y1459666D01*
X166126Y1459753D01*
X166146Y1459788D01*
X166171Y1459819D01*
X166222Y1459927D01*
X166280Y1460031D01*
X166290Y1460071D01*
X166307Y1460107D01*
X166329Y1460224D01*
X166359Y1460339D01*
X166363Y1460400D01*
X166367Y1460420D01*
X166365Y1460440D01*
X166369Y1460500D01*
X166369Y1549400D01*
X166354Y1549518D01*
X166347Y1549637D01*
X166334Y1549675D01*
X166329Y1549716D01*
X166286Y1549826D01*
X166249Y1549939D01*
X166227Y1549974D01*
X166212Y1550011D01*
X166143Y1550107D01*
X166079Y1550208D01*
X166049Y1550236D01*
X166026Y1550269D01*
X165934Y1550345D01*
X165847Y1550426D01*
X165812Y1550446D01*
X165781Y1550471D01*
X165673Y1550522D01*
X165569Y1550580D01*
X165529Y1550590D01*
X165493Y1550607D01*
X165376Y1550629D01*
X165261Y1550659D01*
X165201Y1550663D01*
X165181Y1550667D01*
X165160Y1550665D01*
X165100Y1550669D01*
X50800Y1550669D01*
X50702Y1550657D01*
X50603Y1550654D01*
X50545Y1550637D01*
X50484Y1550629D01*
X50392Y1550593D01*
X50297Y1550565D01*
X50245Y1550535D01*
X50189Y1550512D01*
X50109Y1550454D01*
X50023Y1550404D01*
X49948Y1550338D01*
X49931Y1550326D01*
X49924Y1550316D01*
X49903Y1550298D01*
X37203Y1537598D01*
X37142Y1537519D01*
X37074Y1537447D01*
X37045Y1537394D01*
X37008Y1537346D01*
X36968Y1537255D01*
X36920Y1537169D01*
X36905Y1537110D01*
X36881Y1537054D01*
X36866Y1536956D01*
X36841Y1536861D01*
X36835Y1536761D01*
X36831Y1536740D01*
X36833Y1536728D01*
X36831Y1536700D01*
X36831Y1511300D01*
X36843Y1511202D01*
X36846Y1511103D01*
X36863Y1511045D01*
X36871Y1510984D01*
X36907Y1510892D01*
X36935Y1510797D01*
X36965Y1510745D01*
X36988Y1510689D01*
X37046Y1510609D01*
X37096Y1510523D01*
X37162Y1510448D01*
X37174Y1510431D01*
X37184Y1510424D01*
X37203Y1510403D01*
X49903Y1497703D01*
X49981Y1497642D01*
X50053Y1497574D01*
X50106Y1497545D01*
X50154Y1497508D01*
X50245Y1497468D01*
X50331Y1497420D01*
X50390Y1497405D01*
X50446Y1497381D01*
X50544Y1497366D01*
X50639Y1497341D01*
X50739Y1497335D01*
X50760Y1497331D01*
X50772Y1497333D01*
X50800Y1497331D01*
X101074Y1497331D01*
X138803Y1459603D01*
X138881Y1459542D01*
X138953Y1459474D01*
X139006Y1459445D01*
X139054Y1459408D01*
X139145Y1459368D01*
X139231Y1459320D01*
X139290Y1459305D01*
X139346Y1459281D01*
X139444Y1459266D01*
X139539Y1459241D01*
X139639Y1459235D01*
X139660Y1459231D01*
X139672Y1459233D01*
X139700Y1459231D01*
X165100Y1459231D01*
X165218Y1459246D01*
G37*
D10*
X0Y0D02*
X787400Y0D01*
X787200Y1863600D01*
X0Y1863600D01*
X0Y0D01*
D11*
X194310Y231800D03*
X194310Y250800D03*
D12*
X255300Y1790700D03*
X227300Y1790700D03*
D13*
X266700Y1738600D03*
X266700Y1766600D03*
D11*
X194310Y301600D03*
X194310Y282600D03*
D12*
X190470Y1710690D03*
X218470Y1710690D03*
D13*
X165100Y1779300D03*
X165100Y1751300D03*
D14*
X295300Y1104900D03*
X314300Y1104900D03*
X377800Y1104900D03*
X358800Y1104900D03*
D15*
X76200Y1282700D03*
X101600Y1282700D03*
X76200Y1257300D03*
X101600Y1257300D03*
X76200Y1231900D03*
X101600Y1231900D03*
X76200Y1206500D03*
X101600Y1206500D03*
X76200Y1181100D03*
X101600Y1181100D03*
D16*
X711200Y139700D03*
D17*
X711200Y68070D03*
D16*
X60960Y1452880D03*
D17*
X60960Y1524510D03*
D16*
X369570Y1452880D03*
D17*
X369570Y1524510D03*
D18*
X139700Y520700D03*
X114300Y520700D03*
X88900Y520700D03*
X63500Y520700D03*
X139700Y495300D03*
X114300Y495300D03*
X88900Y495300D03*
X63500Y495300D03*
D19*
X61200Y1074300D03*
X61200Y1069300D03*
X61200Y1064300D03*
X61200Y1059300D03*
D20*
X68700Y1051800D03*
X73700Y1051800D03*
X78700Y1051800D03*
X83700Y1051800D03*
D19*
X91200Y1059300D03*
X91200Y1064300D03*
X91200Y1069300D03*
X91200Y1074300D03*
D20*
X83700Y1081800D03*
X78700Y1081800D03*
X73700Y1081800D03*
X68700Y1081800D03*
D21*
X76200Y1066800D03*
D19*
X200900Y1760100D03*
X200900Y1755100D03*
X200900Y1750100D03*
X200900Y1745100D03*
D20*
X208400Y1737600D03*
X213400Y1737600D03*
X218400Y1737600D03*
X223400Y1737600D03*
D19*
X230900Y1745100D03*
X230900Y1750100D03*
X230900Y1755100D03*
X230900Y1760100D03*
D20*
X223400Y1767600D03*
X218400Y1767600D03*
X213400Y1767600D03*
X208400Y1767600D03*
D21*
X215900Y1752600D03*
D22*
X402900Y990400D03*
X397900Y990400D03*
X392900Y990400D03*
X387900Y990400D03*
X382900Y990400D03*
X377900Y990400D03*
X372900Y990400D03*
X367900Y990400D03*
X362900Y990400D03*
X357900Y990400D03*
X352900Y990400D03*
X347900Y990400D03*
X342900Y990400D03*
X337900Y990400D03*
X332900Y990400D03*
X327900Y990400D03*
X322900Y990400D03*
X317900Y990400D03*
X312900Y990400D03*
X307900Y990400D03*
X302900Y990400D03*
X297900Y990400D03*
X292900Y990400D03*
X287900Y990400D03*
X282900Y990400D03*
D23*
X266900Y974400D03*
X266900Y969400D03*
X266900Y964400D03*
X266900Y959400D03*
X266900Y954400D03*
X266900Y949400D03*
X266900Y944400D03*
X266900Y939400D03*
X266900Y934400D03*
X266900Y929400D03*
X266900Y924400D03*
X266900Y919400D03*
X266900Y914400D03*
X266900Y909400D03*
X266900Y904400D03*
X266900Y899400D03*
X266900Y894400D03*
X266900Y889400D03*
X266900Y884400D03*
X266900Y879400D03*
X266900Y874400D03*
X266900Y869400D03*
X266900Y864400D03*
X266900Y859400D03*
X266900Y854400D03*
D22*
X282900Y838400D03*
X287900Y838400D03*
X292900Y838400D03*
X297900Y838400D03*
X302900Y838400D03*
X307900Y838400D03*
X312900Y838400D03*
X317900Y838400D03*
X322900Y838400D03*
X327900Y838400D03*
X332900Y838400D03*
X337900Y838400D03*
X342900Y838400D03*
X347900Y838400D03*
X352900Y838400D03*
X357900Y838400D03*
X362900Y838400D03*
X367900Y838400D03*
X372900Y838400D03*
X377900Y838400D03*
X382900Y838400D03*
X387900Y838400D03*
X392900Y838400D03*
X397900Y838400D03*
X402900Y838400D03*
D23*
X418900Y854400D03*
X418900Y859400D03*
X418900Y864400D03*
X418900Y869400D03*
X418900Y874400D03*
X418900Y879400D03*
X418900Y884400D03*
X418900Y889400D03*
X418900Y894400D03*
X418900Y899400D03*
X418900Y904400D03*
X418900Y909400D03*
X418900Y914400D03*
X418900Y919400D03*
X418900Y924400D03*
X418900Y929400D03*
X418900Y934400D03*
X418900Y939400D03*
X418900Y944400D03*
X418900Y949400D03*
X418900Y954400D03*
X418900Y959400D03*
X418900Y964400D03*
X418900Y969400D03*
X418900Y974400D03*
D15*
X88900Y1790700D03*
X114300Y1790700D03*
X88900Y1765300D03*
X114300Y1765300D03*
X88900Y1739900D03*
X114300Y1739900D03*
X88900Y1714500D03*
X114300Y1714500D03*
X88900Y1689100D03*
X114300Y1689100D03*
D24*
X415290Y696468D02*
X415290Y682752D01*
X389890Y682752D02*
X389890Y696468D01*
X364490Y696468D02*
X364490Y682752D01*
X217170Y1115822D02*
X217170Y1129538D01*
X191770Y1129538D02*
X191770Y1115822D01*
X166370Y1115822D02*
X166370Y1129538D01*
D25*
X71120Y977900D02*
X55880Y977900D01*
X55880Y952500D02*
X71120Y952500D01*
X71120Y927100D02*
X55880Y927100D01*
X55880Y901700D02*
X71120Y901700D01*
X71120Y876300D02*
X55880Y876300D01*
X55880Y850900D02*
X71120Y850900D01*
D26*
X227330Y1213780D03*
X227330Y1234780D03*
X139700Y230800D03*
X139700Y251800D03*
D27*
X685800Y1244600D03*
X685800Y1270000D03*
X685800Y1295400D03*
X685800Y1320800D03*
D28*
X685800Y1346200D03*
D16*
X711200Y304800D03*
D17*
X711200Y233170D03*
D25*
X520700Y133350D02*
X520700Y118110D01*
X495300Y118110D02*
X495300Y133350D01*
X469900Y133350D02*
X469900Y118110D01*
D29*
X365760Y1067054D02*
X365760Y1076706D01*
X314960Y1076706D02*
X314960Y1067054D01*
D25*
X525780Y1168400D02*
X541020Y1168400D01*
X541020Y1143000D02*
X525780Y1143000D01*
X525780Y1117600D02*
X541020Y1117600D01*
X541020Y1295400D02*
X525780Y1295400D01*
X525780Y1270000D02*
X541020Y1270000D01*
X541020Y1244600D02*
X525780Y1244600D01*
X668020Y814070D02*
X668020Y798830D01*
X693420Y798830D02*
X693420Y814070D01*
X718820Y814070D02*
X718820Y798830D01*
X468630Y62230D02*
X468630Y46990D01*
X494030Y46990D02*
X494030Y62230D01*
X519430Y62230D02*
X519430Y46990D01*
X673100Y1135380D02*
X673100Y1150620D01*
X698500Y1150620D02*
X698500Y1135380D01*
X723900Y1135380D02*
X723900Y1150620D01*
D14*
X264770Y1036320D03*
X245770Y1036320D03*
X267360Y1154430D03*
X286360Y1154430D03*
D11*
X414020Y748640D03*
X414020Y729640D03*
X364490Y728370D03*
X364490Y747370D03*
D14*
X342240Y1035050D03*
X323240Y1035050D03*
D11*
X292100Y136500D03*
X292100Y117500D03*
X292100Y85700D03*
X292100Y66700D03*
X139700Y66700D03*
X139700Y85700D03*
X139700Y117500D03*
X139700Y136500D03*
D30*
X241050Y1710690D03*
X269490Y1710690D03*
D27*
X749300Y1244600D03*
X749300Y1270000D03*
X749300Y1295400D03*
X749300Y1320800D03*
D28*
X749300Y1346200D03*
D25*
X190500Y1188720D02*
X175260Y1188720D01*
X175260Y1214120D02*
X190500Y1214120D01*
X190500Y1239520D02*
X175260Y1239520D01*
X259080Y660400D02*
X274320Y660400D01*
X274320Y635000D02*
X259080Y635000D01*
X259080Y609600D02*
X274320Y609600D01*
D31*
X482600Y241300D03*
X482600Y266700D03*
X482600Y292100D03*
X50800Y241300D03*
X50800Y266700D03*
X50800Y292100D03*
X355600Y241300D03*
X355600Y266700D03*
X355600Y292100D03*
X615950Y118110D03*
X615950Y92710D03*
X615950Y67310D03*
D32*
X227399Y285649D02*
X227399Y293551D01*
X239101Y293551D01*
X239101Y285649D01*
X227399Y285649D01*
X227399Y288425D02*
X239101Y288425D01*
X239101Y291201D02*
X227399Y291201D01*
X227399Y270651D02*
X227399Y262749D01*
X227399Y270651D02*
X239101Y270651D01*
X239101Y262749D01*
X227399Y262749D01*
X227399Y265525D02*
X239101Y265525D01*
X239101Y268301D02*
X227399Y268301D01*
X227399Y247751D02*
X227399Y239849D01*
X227399Y247751D02*
X239101Y247751D01*
X239101Y239849D01*
X227399Y239849D01*
X227399Y242625D02*
X239101Y242625D01*
X239101Y245401D02*
X227399Y245401D01*
D33*
X294593Y251493D02*
X294593Y281907D01*
X305707Y281907D01*
X305707Y251493D01*
X294593Y251493D01*
X294593Y254827D02*
X305707Y254827D01*
X305707Y258161D02*
X294593Y258161D01*
X294593Y261495D02*
X305707Y261495D01*
X305707Y264829D02*
X294593Y264829D01*
X294593Y268163D02*
X305707Y268163D01*
X305707Y271497D02*
X294593Y271497D01*
X294593Y274831D02*
X305707Y274831D01*
X305707Y278165D02*
X294593Y278165D01*
X294593Y281499D02*
X305707Y281499D01*
D34*
X349300Y136600D03*
X349300Y111600D03*
X349300Y91600D03*
X349300Y66600D03*
D35*
X355300Y35900D03*
X397100Y101600D03*
X355300Y167300D03*
D34*
X82500Y66600D03*
X82500Y91600D03*
X82500Y111600D03*
X82500Y136600D03*
D35*
X76500Y167300D03*
X34700Y101600D03*
X76500Y35900D03*
D16*
X703580Y1452880D03*
D17*
X703580Y1524510D03*
D25*
X668020Y939800D02*
X652780Y939800D01*
X652780Y965200D02*
X668020Y965200D01*
X668020Y990600D02*
X652780Y990600D01*
X652780Y1016000D02*
X668020Y1016000D01*
X668020Y1041400D02*
X652780Y1041400D01*
X652780Y1066800D02*
X668020Y1066800D01*
X668020Y1092200D02*
X652780Y1092200D01*
X652780Y914400D02*
X668020Y914400D01*
X668020Y889000D02*
X652780Y889000D01*
X652780Y863600D02*
X668020Y863600D01*
X728980Y939800D02*
X744220Y939800D01*
X744220Y965200D02*
X728980Y965200D01*
X728980Y990600D02*
X744220Y990600D01*
X744220Y1016000D02*
X728980Y1016000D01*
X728980Y1041400D02*
X744220Y1041400D01*
X744220Y1066800D02*
X728980Y1066800D01*
X728980Y1092200D02*
X744220Y1092200D01*
X744220Y914400D02*
X728980Y914400D01*
X728980Y889000D02*
X744220Y889000D01*
X744220Y863600D02*
X728980Y863600D01*
D11*
X162560Y1002640D03*
X162560Y983640D03*
D24*
X169418Y894080D02*
X155702Y894080D01*
X155702Y919480D02*
X169418Y919480D01*
X169418Y944880D02*
X155702Y944880D01*
D25*
X728980Y584200D02*
X744220Y584200D01*
X744220Y609600D02*
X728980Y609600D01*
X728980Y635000D02*
X744220Y635000D01*
X744220Y660400D02*
X728980Y660400D01*
D36*
X215900Y134100D03*
X215900Y69100D03*
D26*
X660400Y406400D03*
D37*
X685800Y406400D03*
X711200Y406400D03*
X736600Y406400D03*
D26*
X660400Y495300D03*
D37*
X685800Y495300D03*
X711200Y495300D03*
X736600Y495300D03*
D26*
X355600Y406400D03*
D37*
X381000Y406400D03*
X406400Y406400D03*
X431800Y406400D03*
D26*
X355600Y495300D03*
D37*
X381000Y495300D03*
X406400Y495300D03*
X431800Y495300D03*
D26*
X508000Y406400D03*
D37*
X533400Y406400D03*
X558800Y406400D03*
X584200Y406400D03*
D26*
X508000Y495300D03*
D37*
X533400Y495300D03*
X558800Y495300D03*
X584200Y495300D03*
D11*
X508000Y622960D03*
X508000Y641960D03*
X546100Y622960D03*
X546100Y641960D03*
X584200Y622960D03*
X584200Y641960D03*
X355600Y625500D03*
X355600Y644500D03*
X393700Y625500D03*
X393700Y644500D03*
X431800Y625500D03*
X431800Y644500D03*
X508000Y682600D03*
X508000Y663600D03*
X546100Y682600D03*
X546100Y663600D03*
X584200Y682600D03*
X584200Y663600D03*
D38*
X150460Y1524000D03*
X150460Y1473200D03*
D39*
X236610Y1498600D03*
D38*
X586140Y1473200D03*
X586140Y1524000D03*
D39*
X499990Y1498600D03*
D11*
X139700Y301600D03*
X139700Y282600D03*
D14*
X542900Y88900D03*
X523900Y88900D03*
D11*
X494030Y183490D03*
X494030Y164490D03*
D14*
X291440Y711200D03*
X272440Y711200D03*
X267360Y558800D03*
X286360Y558800D03*
D11*
X226060Y1155090D03*
X226060Y1174090D03*
D25*
X38100Y414020D02*
X38100Y398780D01*
X63500Y398780D02*
X63500Y414020D01*
X88900Y414020D02*
X88900Y398780D01*
X114300Y398780D02*
X114300Y414020D01*
X139700Y414020D02*
X139700Y398780D01*
X165100Y398780D02*
X165100Y414020D01*
X190500Y414020D02*
X190500Y398780D01*
X215900Y398780D02*
X215900Y414020D01*
D24*
X197358Y533400D02*
X183642Y533400D01*
X183642Y508000D02*
X197358Y508000D01*
X197358Y482600D02*
X183642Y482600D01*
D25*
X652780Y571500D02*
X668020Y571500D01*
X668020Y596900D02*
X652780Y596900D01*
X652780Y622300D02*
X668020Y622300D01*
X668020Y647700D02*
X652780Y647700D01*
X652780Y673100D02*
X668020Y673100D01*
X668020Y698500D02*
X652780Y698500D01*
D24*
X698500Y704342D02*
X698500Y718058D01*
X723900Y718058D02*
X723900Y704342D01*
X749300Y704342D02*
X749300Y718058D01*
D11*
X464820Y762610D03*
X464820Y743610D03*
D26*
X464820Y677840D03*
X464820Y698840D03*
D30*
X700020Y762000D03*
X671580Y762000D03*
X700020Y1193800D03*
X671580Y1193800D03*
D40*
X508000Y584200D03*
X546100Y584200D03*
X584200Y584200D03*
X355600Y584200D03*
X393700Y584200D03*
X431800Y584200D03*
X508000Y723900D03*
X546100Y723900D03*
X584200Y723900D03*
D16*
X601980Y219710D03*
D17*
X601980Y291340D03*
D40*
X609600Y863600D03*
X609600Y914400D03*
X609600Y965200D03*
X609600Y1016000D03*
X609600Y1066800D03*
D14*
X287630Y1210310D03*
X268630Y1210310D03*
X268630Y1258570D03*
X287630Y1258570D03*
D41*
X249580Y989330D03*
X368300Y889000D03*
X317420Y889080D03*
X342900Y889000D03*
X327355Y936955D03*
X353060Y937920D03*
X378460Y937920D03*
X306703Y1003960D03*
X331800Y569900D03*
X38100Y1104900D03*
X303840Y558800D03*
X538480Y561340D03*
X469900Y609600D03*
X88900Y1143000D03*
X114300Y1143000D03*
X419100Y826460D03*
X38100Y1066800D03*
X547700Y662000D03*
X45174Y1048474D03*
X266700Y228600D03*
X355600Y342900D03*
X773423Y342900D03*
X773369Y863600D03*
X165100Y299200D03*
X139700Y301600D03*
X353060Y956920D03*
X326390Y956920D03*
X254000Y831850D03*
X401320Y855370D03*
X352400Y914400D03*
X294640Y914400D03*
X380194Y914400D03*
X89550Y1028050D03*
X13942Y342900D03*
X13942Y825500D03*
X378460Y956920D03*
X762000Y355600D03*
X762000Y1193800D03*
X700020Y1193800D03*
X317500Y812800D03*
X317500Y368300D03*
X13942Y1092200D03*
X275590Y1064260D03*
X13942Y977900D03*
X317500Y533400D03*
X215900Y1092200D03*
X364490Y747370D03*
X317500Y746760D03*
X700020Y762000D03*
X762000Y762000D03*
X409600Y1079500D03*
X439420Y982320D03*
X409600Y1028700D03*
X13942Y1003300D03*
X247650Y961230D03*
X88930Y1107440D03*
X494030Y183490D03*
X375920Y330200D03*
X196370Y622300D03*
X508000Y581640D03*
X189540Y647700D03*
X546100Y581640D03*
X430530Y666750D03*
X368300Y666750D03*
X335192Y976840D03*
X468602Y951202D03*
X355600Y581640D03*
X211272Y574040D03*
X393700Y581640D03*
X301582Y1017620D03*
X482600Y1051560D03*
X508000Y727100D03*
X323169Y1003960D03*
X520700Y1003300D03*
X546100Y727100D03*
X254000Y698500D03*
X584200Y581640D03*
X203200Y609600D03*
X431800Y581640D03*
X330200Y968980D03*
X533400Y944372D03*
X584200Y727100D03*
X295300Y859790D03*
X372720Y858520D03*
X138430Y1214120D03*
X139700Y876300D03*
X25400Y698500D03*
X26670Y1122680D03*
X330200Y635000D03*
X330200Y689610D03*
X218102Y832330D03*
X110490Y831370D03*
X139700Y825500D03*
X228600Y825500D03*
X99975Y952500D03*
X99975Y819731D03*
X440690Y819630D03*
X382827Y737859D03*
X106805Y889000D03*
X127000Y737870D03*
X293370Y877570D03*
X584200Y1346200D03*
X571500Y787400D03*
X337820Y786130D03*
X127000Y889000D03*
X223774Y884654D03*
X431800Y1117600D03*
X469900Y1028700D03*
X431800Y1028700D03*
X457200Y1079500D03*
X246039Y896846D03*
X101600Y1081250D03*
X181836Y897890D03*
X151130Y1081250D03*
X46990Y1074420D03*
X228600Y912570D03*
X279400Y812800D03*
X38100Y812800D03*
X76200Y787400D03*
X298450Y787400D03*
X88900Y800100D03*
X279400Y800100D03*
X109220Y905510D03*
X219710Y905510D03*
X582680Y1066800D03*
X304800Y1031410D03*
X582680Y1016000D03*
X292100Y1028700D03*
X582680Y965200D03*
X283210Y1010920D03*
X582680Y863600D03*
X400768Y901700D03*
X190500Y1765300D03*
X218880Y1726266D03*
X155874Y1726266D03*
X241300Y1752600D03*
X241300Y1765300D03*
X255300Y1790700D03*
X203200Y1778000D03*
X269490Y1710690D03*
X101600Y1676400D03*
X180340Y1779270D03*
X165100Y1751300D03*
X218470Y1710690D03*
X241050Y1710690D03*
X347980Y775970D03*
X711200Y1346200D03*
X711699Y775199D03*
X219710Y919480D03*
X162560Y870176D03*
X292100Y136500D03*
X444500Y203200D03*
X582680Y914400D03*
X393700Y914400D03*
X296070Y971720D03*
X317500Y925860D03*
X372110Y798830D03*
X309400Y797560D03*
X393700Y266700D03*
X558800Y1168400D03*
X354730Y794230D03*
X558800Y794230D03*
X495300Y812800D03*
X495300Y1271520D03*
X361560Y812546D03*
X457200Y825500D03*
X457200Y876300D03*
X596688Y845820D03*
X584200Y838200D03*
X444500Y876300D03*
X385005Y805254D03*
X609600Y805970D03*
X139700Y66700D03*
X571500Y673100D03*
X528320Y670560D03*
X482600Y673100D03*
X693420Y844550D03*
X330200Y762000D03*
X464820Y762610D03*
X300330Y958850D03*
X264770Y1036320D03*
X268580Y989330D03*
X268580Y1010920D03*
X245110Y1064260D03*
M02*
